<svg xmlns="http://www.w3.org/2000/svg" viewBox="0 0 100 100" width="100" height="100"><path fill="#f1bc19" d="M77 12A1 1 0 1 0 77 14A1 1 0 1 0 77 12Z"/><path fill="#e6edb7" d="M50 13A37 37 0 1 0 50 87A37 37 0 1 0 50 13Z"/><path fill="#f1bc19" d="M83 11A4 4 0 1 0 83 19A4 4 0 1 0 83 11Z"/><path fill="#88ae45" d="M87 22A2 2 0 1 0 87 26A2 2 0 1 0 87 22Z"/><path fill="#fbcd59" d="M81 74A2 2 0 1 0 81 78 2 2 0 1 0 81 74zM15 59A4 4 0 1 0 15 67 4 4 0 1 0 15 59z"/><path fill="#88ae45" d="M25 85A2 2 0 1 0 25 89A2 2 0 1 0 25 85Z"/><path fill="#fff" d="M18.5 49A2.5 2.5 0 1 0 18.5 54 2.5 2.5 0 1 0 18.5 49zM79.5 32A1.5 1.5 0 1 0 79.5 35 1.5 1.5 0 1 0 79.5 32z"/><g><path fill="#39c2d8" d="M40.608 76.684L36.648 70.673 29.418 72.108 38.255 50.5 49.445 55.076z"/><path fill="#472b29" d="M40.753,78.177l-4.431-6.726l-8.045,1.597l9.595-23.461l12.485,5.106L40.753,78.177z M36.974,69.895l3.489,5.296l8.069-19.731l-9.894-4.046l-8.08,19.754L36.974,69.895z"/><path fill="#39c2d8" d="M59.392 76.684L63.352 70.673 70.582 72.108 61.745 50.5 50.555 55.076z"/><path fill="#472b29" d="M59.247,78.177l-9.605-23.483l12.486-5.106l9.595,23.461l-8.046-1.597L59.247,78.177z M51.468,55.459l8.07,19.731l3.488-5.296l6.415,1.272l-8.079-19.754L51.468,55.459z"/><path fill="#f69272" d="M53.736,61.65c-0.333,0-0.654-0.073-0.956-0.219l-1.214-0.587 c-0.485-0.235-1.027-0.359-1.566-0.359s-1.081,0.124-1.567,0.359l-1.213,0.587c-0.301,0.146-0.623,0.219-0.956,0.219 c-0.649,0.001-1.261-0.283-1.679-0.778l-0.871-1.031c-0.684-0.811-1.685-1.275-2.747-1.275c0,0-1.465,0.045-1.466,0.045 c-1.041,0-1.906-0.651-2.177-1.584l-0.376-1.296c-0.308-1.061-1.072-1.909-2.096-2.328l-1.25-0.509 c-0.929-0.379-1.483-1.339-1.347-2.333l0.184-1.336c0.151-1.096-0.202-2.182-0.968-2.979l-0.934-0.973 c-0.695-0.725-0.811-1.827-0.282-2.68l0.711-1.146c0.583-0.939,0.703-2.075,0.328-3.115l-0.458-1.27 c-0.34-0.944,0.002-1.998,0.832-2.562l1.116-0.758c0.915-0.621,1.486-1.609,1.566-2.713l0.099-1.346 c0.073-1.001,0.814-1.824,1.802-2.001l1.328-0.238c1.088-0.195,2.012-0.867,2.535-1.843l0.637-1.188 c0.383-0.716,1.125-1.16,1.937-1.16c0.176,0,0.353,0.021,0.524,0.063l1.31,0.322c0.281,0.069,0.57,0.104,0.859,0.104 c0.794,0,1.577-0.269,2.205-0.756l1.066-0.827C49.042,21.859,49.508,21.7,50,21.7s0.958,0.159,1.347,0.461l1.065,0.827 c0.628,0.487,1.411,0.756,2.205,0.756c0.289,0,0.579-0.035,0.86-0.104l1.309-0.322c0.172-0.042,0.349-0.063,0.524-0.063 c0.812,0,1.554,0.444,1.937,1.16l0.638,1.188c0.522,0.975,1.446,1.646,2.534,1.842l1.327,0.238c0.988,0.177,1.729,1,1.803,2.001 l0.099,1.346c0.081,1.104,0.651,2.092,1.566,2.713l1.115,0.758c0.831,0.564,1.174,1.617,0.833,2.562l-0.457,1.27 c-0.375,1.041-0.256,2.177,0.327,3.115l0.711,1.146c0.529,0.853,0.414,1.954-0.281,2.68l-0.934,0.973 c-0.766,0.797-1.119,1.883-0.969,2.979l0.184,1.338c0.137,0.993-0.417,1.953-1.347,2.332l-1.248,0.509 c-1.025,0.419-1.79,1.268-2.097,2.329l-0.376,1.295c-0.271,0.933-1.139,1.585-2.109,1.585l-1.533-0.046 c-1.062,0-2.063,0.465-2.748,1.276l-0.87,1.03C54.997,61.367,54.385,61.65,53.736,61.65z"/><path fill="#472b29" d="M50,22.4c0.335,0,0.653,0.109,0.918,0.314l1.065,0.827c0.75,0.582,1.685,0.902,2.634,0.902 c0.345,0,0.691-0.042,1.027-0.125l1.31-0.322c0.118-0.029,0.238-0.043,0.358-0.043c0.552,0,1.058,0.303,1.319,0.79l0.637,1.189 c0.624,1.165,1.727,1.966,3.028,2.2l1.327,0.238c0.673,0.121,1.178,0.682,1.228,1.364l0.098,1.345 c0.096,1.318,0.778,2.5,1.871,3.241l1.116,0.758c0.566,0.384,0.799,1.102,0.567,1.746l-0.457,1.269 c-0.448,1.242-0.305,2.599,0.391,3.722l0.711,1.146c0.361,0.582,0.282,1.332-0.192,1.826l-0.934,0.973 c-0.915,0.953-1.336,2.25-1.157,3.56l0.184,1.336c0.093,0.678-0.284,1.331-0.918,1.589l-1.249,0.509 c-1.223,0.499-2.136,1.512-2.505,2.781l-0.376,1.295c-0.184,0.635-0.774,1.079-1.483,1.079c-0.001,0-0.001,0-0.002,0 l-1.349-0.043l-0.135-0.002c-1.268,0-2.465,0.556-3.283,1.524l-0.87,1.03c-0.285,0.338-0.702,0.531-1.145,0.531 c-0.227,0-0.445-0.05-0.65-0.149l-1.214-0.587c-0.58-0.281-1.227-0.429-1.872-0.429s-1.292,0.148-1.871,0.429l-1.214,0.587 c-0.205,0.099-0.424,0.149-0.65,0.149c-0.442,0-0.86-0.193-1.145-0.531l-0.87-1.03c-0.818-0.969-2.015-1.524-3.283-1.524 l-0.136,0.002l-1.396,0.044c-0.661,0-1.252-0.444-1.436-1.08l-0.376-1.295c-0.368-1.269-1.281-2.283-2.504-2.781l-1.249-0.509 c-0.633-0.258-1.011-0.912-0.918-1.589l0.183-1.336c0.18-1.309-0.242-2.606-1.157-3.56l-0.934-0.973 c-0.474-0.494-0.552-1.244-0.192-1.825l0.711-1.146c0.696-1.123,0.839-2.479,0.391-3.722l-0.457-1.269 c-0.232-0.644,0.001-1.361,0.567-1.746l1.116-0.758c1.093-0.742,1.775-1.923,1.871-3.241l0.098-1.345 c0.05-0.682,0.555-1.243,1.228-1.364l1.328-0.238c1.3-0.234,2.404-1.036,3.027-2.2l0.637-1.189 c0.261-0.487,0.767-0.79,1.319-0.79c0.12,0,0.24,0.015,0.358,0.043l1.31,0.322c0.336,0.083,0.681,0.125,1.026,0.125 c0.949,0,1.885-0.32,2.634-0.902l1.065-0.827C49.347,22.509,49.665,22.4,50,22.4 M50,21c-0.627,0-1.254,0.203-1.776,0.608 l-1.066,0.827c-0.513,0.398-1.139,0.608-1.776,0.608c-0.231,0-0.463-0.028-0.692-0.084l-1.31-0.322 c-0.231-0.057-0.463-0.084-0.692-0.084c-1.049,0-2.04,0.572-2.553,1.529l-0.637,1.189c-0.418,0.78-1.17,1.327-2.041,1.483 l-1.328,0.238c-1.302,0.234-2.28,1.32-2.377,2.64l-0.098,1.345c-0.065,0.883-0.529,1.688-1.262,2.185l-1.116,0.758 c-1.094,0.744-1.546,2.134-1.098,3.378l0.457,1.269c0.3,0.833,0.203,1.757-0.264,2.509l-0.711,1.146 c-0.698,1.125-0.545,2.578,0.371,3.533l0.934,0.973c0.613,0.639,0.9,1.523,0.78,2.4l-0.184,1.336 c-0.18,1.311,0.551,2.577,1.776,3.076l1.249,0.509c0.82,0.334,1.442,1.025,1.688,1.875l0.376,1.295 c0.36,1.241,1.496,2.089,2.781,2.089c0.031,0,0.062,0,0.093-0.001l1.348-0.043c0.031-0.001,0.061-0.001,0.091-0.001 c0.852,0,1.662,0.375,2.214,1.028l0.87,1.03c0.565,0.668,1.381,1.028,2.214,1.028c0.426,0,0.857-0.094,1.26-0.289l1.214-0.587 c0.398-0.193,0.83-0.29,1.262-0.29s0.863,0.097,1.262,0.29l1.214,0.587c0.403,0.195,0.834,0.289,1.26,0.289 c0.833,0,1.65-0.359,2.214-1.028l0.87-1.03c0.551-0.653,1.362-1.028,2.214-1.028c0.03,0,0.061,0,0.091,0.001l1.348,0.043 c0.031,0.001,0.062,0.001,0.093,0.001c1.284,0,2.421-0.849,2.781-2.089l0.376-1.295c0.247-0.85,0.869-1.541,1.688-1.875 l1.249-0.509c1.225-0.5,1.956-1.766,1.776-3.076l-0.184-1.336c-0.12-0.877,0.167-1.761,0.78-2.4l0.934-0.973 c0.916-0.955,1.069-2.408,0.371-3.533l-0.711-1.146c-0.467-0.752-0.564-1.677-0.264-2.509l0.457-1.269 c0.449-1.245-0.003-2.635-1.098-3.378l-1.116-0.758c-0.732-0.497-1.197-1.302-1.262-2.185l-0.098-1.345 c-0.096-1.319-1.075-2.406-2.377-2.64l-1.328-0.238c-0.871-0.157-1.623-0.703-2.041-1.483l-0.637-1.189 c-0.513-0.957-1.504-1.529-2.553-1.529c-0.229,0-0.462,0.027-0.692,0.084l-1.31,0.322c-0.229,0.056-0.461,0.084-0.692,0.084 c-0.637,0-1.263-0.21-1.776-0.608l-1.066-0.827C51.254,21.203,50.627,21,50,21L50,21z"/><path fill="#472b29" d="M64.751 37.972c-.215 0-.413-.139-.479-.354-.065-.217-.138-.431-.213-.643-.297-.826-.67-1.629-1.107-2.386-.139-.238-.057-.544.183-.683.233-.139.543-.059.683.183.468.808.866 1.665 1.184 2.549.081.227.157.456.229.688.08.264-.068.543-.333.624C64.848 37.965 64.799 37.972 64.751 37.972zM34.89 39.049c-.036 0-.072-.004-.108-.012-.27-.06-.44-.327-.38-.597 1.6-7.231 8.16-12.48 15.599-12.48 4.572 0 8.933 1.958 11.964 5.373.229.259.45.524.662.797.17.218.131.532-.088.701-.217.168-.532.131-.701-.088-.198-.255-.405-.503-.621-.746C58.374 28.796 54.286 26.96 50 26.96c-6.973 0-13.123 4.919-14.622 11.697C35.326 38.89 35.12 39.049 34.89 39.049zM50 57.811c-7.787 0-14.405-5.543-15.737-13.18-.047-.272.135-.531.407-.578.277-.052.531.134.579.406C36.496 51.616 42.7 56.811 50 56.811c8.257 0 14.974-6.695 14.974-14.925 0-.749-.057-1.502-.168-2.239-.042-.273.146-.528.419-.569.27-.035.528.146.569.419.119.787.18 1.591.18 2.39C65.974 50.667 58.808 57.811 50 57.811zM66.113 68.707c-.099 0-.192-.059-.231-.156l-.985-2.44c-.052-.128.01-.273.138-.325.128-.053.273.009.325.138l.985 2.44c.052.128-.01.273-.138.325C66.176 68.701 66.145 68.707 66.113 68.707z"/><g><path fill="#472b29" d="M64.41,64.486c-0.099,0-0.192-0.059-0.231-0.156l-2.269-5.618c-0.052-0.128,0.01-0.273,0.138-0.325 c0.129-0.054,0.273,0.009,0.325,0.138l2.269,5.618c0.052,0.128-0.01,0.273-0.138,0.325C64.473,64.48,64.441,64.486,64.41,64.486z"/></g><g><path fill="#472b29" d="M39.846,71.379c-0.033,0-0.066-0.007-0.098-0.02c-0.127-0.055-0.187-0.201-0.132-0.328l1.029-2.423 c0.054-0.128,0.202-0.182,0.328-0.133c0.127,0.055,0.187,0.201,0.132,0.328l-1.029,2.423 C40.036,71.322,39.943,71.379,39.846,71.379z"/></g><g><path fill="#472b29" d="M41.626,67.189c-0.033,0-0.066-0.007-0.098-0.02c-0.127-0.055-0.187-0.201-0.132-0.328l0.508-1.195 c0.054-0.128,0.202-0.182,0.328-0.133c0.127,0.055,0.187,0.201,0.132,0.328l-0.508,1.195 C41.815,67.133,41.723,67.189,41.626,67.189z"/></g><g><path fill="#472b29" d="M42.702,64.657c-0.033,0-0.066-0.007-0.098-0.02c-0.127-0.055-0.187-0.201-0.132-0.328l1.293-3.045 c0.054-0.128,0.202-0.186,0.328-0.133c0.127,0.055,0.187,0.201,0.132,0.328l-1.293,3.045 C42.891,64.601,42.799,64.657,42.702,64.657z"/></g></g></svg>